<?xml version="1.0" encoding="utf-8"?>
<!-- Generator: Adobe Illustrator 17.0.0, SVG Export Plug-In . SVG Version: 6.00 Build 0)  -->
<!DOCTYPE svg PUBLIC "-//W3C//DTD SVG 1.1//EN" "http://www.w3.org/Graphics/SVG/1.1/DTD/svg11.dtd">
<svg version="1.1" xmlns="http://www.w3.org/2000/svg" xmlns:xlink="http://www.w3.org/1999/xlink" x="0px" y="0px" width="250px"
	 height="250px" viewBox="0 0 250 250" enable-background="new 0 0 250 250" xml:space="preserve">
<g id="Layer_1" display="none">
	<rect display="inline" fill="#002B41" width="250" height="250"/>
</g>
<g id="Layer_2">
	<polygon fill-rule="evenodd" clip-rule="evenodd" fill="none" stroke="#FFFFFF" stroke-width="2" stroke-miterlimit="10" points="
		123.307,177.767 123.307,149.883 171.839,177.455 171.839,136.84 123.345,108.712 123.345,80.668 196.048,122.299 196.048,219.183 
			"/>
	<g>
		<path fill-rule="evenodd" clip-rule="evenodd" fill="#FFFFFF" stroke="#FFFFFF" stroke-width="2" stroke-miterlimit="10" d="
			M123.345,80.668v28.044l-48.434,28.296c0,0,0.018,31.248,0.018,40.741c3.198-1.827,48.378-27.866,48.378-27.866v27.884
			l-72.489,41.481l-0.14-97.007L123.345,80.668"/>
		
			<polygon fill-rule="evenodd" clip-rule="evenodd" fill="#FFFFFF" stroke="#FFFFFF" stroke-width="2" stroke-miterlimit="10" points="
			196.048,39.39 196.048,122.299 172.02,108.504 171.954,81.17 147.543,94.573 123.345,80.668 		"/>
		<path fill-rule="evenodd" clip-rule="evenodd" fill="none" stroke="#FFFFFF" stroke-width="2" stroke-miterlimit="10" d="
			M98.993,94.497L74.919,80.723v27.771l-24.241,13.748l0.085-82.84c0,0,49.461,27.973,72.583,41.267L98.993,94.497z"/>
		<polygon fill-rule="evenodd" clip-rule="evenodd" fill="none" stroke="#FFFFFF" stroke-width="2" stroke-miterlimit="10" points="
			87.797,129.451 123.307,149.883 99.065,163.841 74.929,149.99 74.911,137.009 		"/>
		<path fill-rule="evenodd" clip-rule="evenodd" fill="#FFFFFF" stroke="#FFFFFF" stroke-width="2" stroke-miterlimit="10" d="
			M123.307,150.041l35.767-20.597l12.765,7.396c0,0,0.013,9.273,0,13.273c-8.039,4.591-23.946,13.774-23.946,13.774L123.307,150.041
			z"/>
	</g>
</g>
</svg>
