<?xml version="1.0" encoding="utf-8"?>
<!-- Generator: Adobe Illustrator 17.0.0, SVG Export Plug-In . SVG Version: 6.00 Build 0)  -->
<!DOCTYPE svg PUBLIC "-//W3C//DTD SVG 1.1//EN" "http://www.w3.org/Graphics/SVG/1.1/DTD/svg11.dtd">
<svg version="1.1" xmlns="http://www.w3.org/2000/svg" xmlns:xlink="http://www.w3.org/1999/xlink" x="0px" y="0px" width="250px"
	 height="250px" viewBox="0 0 250 250" enable-background="new 0 0 250 250" xml:space="preserve">
<g id="Layer_2" display="none">
	<rect display="inline" fill="#331B56" width="250" height="250"/>
</g>
<g id="Layer_1">
	<g>
		<g>
			<g>
				<path fill="#FFFFFF" d="M38.746,49.579c-2.75,0-5,2.25-5,5v128.067c0,2.75,2.25,5,5,5H220.83c2.75,0,5-2.25,5-5V54.579
					c0-2.75-2.25-5-5-5H38.746z M215.631,156.87c0,2.75-2.25,5-5,5H48.944c-2.75,0-5-2.25-5-5V64.217c0-2.75,2.25-5,5-5h161.687
					c2.75,0,5,2.25,5,5V156.87z"/>
			</g>
		</g>
		<path id="lab_1_" fill="#FFFFFF" d="M149.029,139.203l-9.768-22.799c-0.956-2.234-1.74-6.046-1.74-8.475
			c0-2.429,1.49-4.419,3.312-4.419s3.318-1.49,3.318-3.312c0-1.822-1.993-3.312-4.419-3.312h-19.873
			c-2.429,0-4.419,1.49-4.419,3.312c0,1.822,1.493,3.312,3.315,3.312c1.822,0,3.312,1.99,3.312,4.419
			c0,2.429-0.784,6.241-1.74,8.475l-9.768,22.799c-0.959,2.24-1.746,5.053-1.746,6.27c0,1.214,0.997,3.208,2.211,4.419
			c1.214,1.212,4.193,2.208,6.622,2.208h24.29c2.429,0,5.407-0.994,6.622-2.208s2.208-3.208,2.208-4.419
			C150.767,144.255,149.985,141.434,149.029,139.203z M132.936,90.353c0,1.74,1.406,3.147,3.147,3.147
			c1.74,0,3.147-1.406,3.147-3.147c0-1.74-1.406-3.15-3.147-3.15C134.342,87.204,132.936,88.613,132.936,90.353z M124.467,90.839
			c0.799,0,1.453-0.651,1.453-1.453c0-0.802-0.654-1.453-1.453-1.453c-0.802,0-1.453,0.651-1.453,1.453
			C123.014,90.188,123.665,90.839,124.467,90.839z M130.036,83.575c2.539,0,4.599-2.06,4.599-4.599c0-2.542-2.06-4.602-4.599-4.602
			c-2.542,0-4.602,2.06-4.602,4.602C125.434,81.515,127.494,83.575,130.036,83.575z"/>
		<polygon fill="#FFFFFF" points="110.624,189.663 149.175,189.663 150.969,200.421 108.607,200.421 		"/>
	</g>
</g>
</svg>
