<?xml version="1.0" encoding="utf-8"?>
<!-- Generator: Adobe Illustrator 17.0.0, SVG Export Plug-In . SVG Version: 6.00 Build 0)  -->
<!DOCTYPE svg PUBLIC "-//W3C//DTD SVG 1.1//EN" "http://www.w3.org/Graphics/SVG/1.1/DTD/svg11.dtd">
<svg version="1.1" xmlns="http://www.w3.org/2000/svg" xmlns:xlink="http://www.w3.org/1999/xlink" x="0px" y="0px" width="250px"
	 height="250px" viewBox="0 0 250 250" enable-background="new 0 0 250 250" xml:space="preserve">
<g id="Layer_2" display="none">
	<rect display="inline" fill="#231F20" width="250" height="250"/>
</g>
<g id="Layer_1">
	<path fill-rule="evenodd" clip-rule="evenodd" fill="#FFFFFF" d="M121.164,38.4c-50.982,0-92.324,41.337-92.324,92.335
		c0,40.789,26.453,75.395,63.145,87.606c4.617,0.847,6.302-2.004,6.302-4.451c0-2.192-0.08-7.998-0.125-15.703
		c-25.683,5.58-31.102-12.377-31.102-12.377c-4.198-10.666-10.251-13.506-10.251-13.506c-8.383-5.729,0.634-5.613,0.634-5.613
		c9.266,0.653,14.142,9.515,14.142,9.515c8.236,14.109,21.609,10.035,26.871,7.672c0.839-5.967,3.224-10.035,5.862-12.343
		c-20.502-2.33-42.056-10.251-42.056-45.632c0-10.079,3.598-18.321,9.504-24.776c-0.949-2.336-4.118-11.723,0.905-24.435
		c0,0,7.752-2.483,25.39,9.465c7.364-2.048,15.263-3.072,23.115-3.108c7.841,0.036,15.74,1.06,23.115,3.108
		c17.627-11.948,25.365-9.465,25.365-9.465c5.037,12.712,1.868,22.099,0.919,24.435c5.917,6.454,9.491,14.696,9.491,24.776
		c0,35.47-21.587,43.274-42.156,45.56c3.315,2.85,6.268,8.486,6.268,17.098c0,12.343-0.113,22.302-0.113,25.329
		c0,2.469,1.663,5.342,6.349,4.44c36.657-12.233,63.088-46.817,63.088-87.595C213.5,79.737,172.157,38.4,121.164,38.4z"/>
</g>
</svg>
