<?xml version="1.0" encoding="utf-8"?>
<!-- Generator: Adobe Illustrator 17.0.0, SVG Export Plug-In . SVG Version: 6.00 Build 0)  -->
<!DOCTYPE svg PUBLIC "-//W3C//DTD SVG 1.1//EN" "http://www.w3.org/Graphics/SVG/1.1/DTD/svg11.dtd">
<svg version="1.1" xmlns="http://www.w3.org/2000/svg" xmlns:xlink="http://www.w3.org/1999/xlink" x="0px" y="0px"
	 width="25.417px" height="21.717px" viewBox="0 0 25.417 21.717" enable-background="new 0 0 25.417 21.717" xml:space="preserve">
<g id="Layer_1" display="none">
	<g display="inline">
		<g>
			<path fill="#FFFFFF" d="M2.209,21.757c0-6.931,0-13.861,0-20.796c6.927,0,13.856,0,20.792,0c0,6.929,0,13.863,0,20.796
				C16.074,21.757,9.142,21.757,2.209,21.757z M2.235,17.747c0.077,0.065,0.132,0.128,0.2,0.165
				c0.345,0.185,0.693,0.365,1.041,0.545c0.302,0.155,0.578,0.08,0.837-0.103c0.6-0.424,0.918-1.021,1.016-1.733
				c0.121-0.88,0.008-1.755-0.106-2.628c-0.017-0.132-0.004-0.218,0.1-0.319c0.386-0.375,0.428-0.997,0.043-1.368
				c-0.229-0.221-0.253-0.427-0.194-0.693c0.016-0.073,0.025-0.147,0.035-0.22c0.142-1.043,0.637-1.824,1.642-2.234
				c0.668-0.273,1.327-0.57,1.999-0.832c1.144-0.445,2.294-0.874,3.445-1.3c0.133-0.049,0.294-0.061,0.434-0.04
				c0.197,0.031,0.326,0.223,0.335,0.43c0.011,0.247-0.117,0.403-0.406,0.511c-1.177,0.441-2.355,0.878-3.528,1.327
				C8.524,9.485,7.927,9.737,7.294,9.993c0.102,0.039,0.169,0.067,0.237,0.09c1.589,0.53,3.18,1.057,4.768,1.592
				c0.217,0.073,0.414,0.068,0.629-0.004c2.633-0.882,5.267-1.759,7.901-2.638c0.487-0.162,0.976-0.32,1.46-0.49
				c0.318-0.111,0.414-0.446,0.189-0.654c-0.075-0.07-0.184-0.112-0.284-0.145c-3.109-1.04-6.217-2.079-9.33-3.107
				c-0.159-0.053-0.367-0.049-0.527,0.004c-1.85,0.606-3.695,1.226-5.541,1.842C5.534,6.902,4.271,7.323,3.008,7.744
				c-0.273,0.091-0.386,0.21-0.39,0.406c-0.004,0.2,0.115,0.33,0.394,0.424c0.147,0.05,0.295,0.097,0.443,0.146
				C3.99,8.899,4.526,9.079,5.086,9.267c-0.626,0.788-0.808,1.702-0.897,2.648c-0.006,0.065-0.072,0.14-0.131,0.181
				c-0.629,0.439-0.629,1.306,0.011,1.72c0.105,0.068,0.123,0.13,0.108,0.245c-0.172,1.33-0.733,2.464-1.687,3.406
				C2.405,17.552,2.328,17.645,2.235,17.747z M18.975,10.779c-0.078,0.021-0.155,0.038-0.23,0.063
				c-1.878,0.626-3.756,1.25-5.631,1.881c-0.342,0.115-0.669,0.117-1.011,0.002c-1.831-0.617-3.664-1.227-5.497-1.838
				c-0.062-0.021-0.125-0.035-0.24-0.068c-0.037,0.336-0.069,0.649-0.108,0.961c-0.015,0.122,0.03,0.193,0.128,0.269
				c0.513,0.401,0.694,0.947,0.579,1.568c-0.052,0.281-0.222,0.54-0.36,0.859c0.2,0.149,0.423,0.348,0.675,0.498
				c1.001,0.596,2.115,0.853,3.251,1.006c1.702,0.23,3.401,0.198,5.086-0.159c0.897-0.19,1.77-0.455,2.535-0.983
				c0.438-0.302,0.827-0.662,0.838-1.245c0.016-0.913,0.006-1.827,0.006-2.741C18.997,10.834,18.986,10.815,18.975,10.779z"/>
			<path d="M2.235,17.747c0.093-0.102,0.169-0.195,0.255-0.279c0.954-0.942,1.515-2.076,1.687-3.406
				c0.015-0.116-0.003-0.177-0.108-0.245c-0.64-0.415-0.64-1.281-0.011-1.72c0.059-0.041,0.125-0.117,0.131-0.181
				c0.089-0.946,0.271-1.86,0.897-2.648C4.526,9.079,3.99,8.899,3.455,8.719C3.307,8.67,3.159,8.623,3.012,8.573
				C2.733,8.479,2.614,8.35,2.618,8.149c0.004-0.196,0.117-0.315,0.39-0.406c1.263-0.421,2.526-0.841,3.789-1.263
				c1.846-0.616,3.691-1.236,5.541-1.842c0.16-0.053,0.368-0.057,0.527-0.004c3.112,1.028,6.221,2.068,9.33,3.107
				c0.1,0.034,0.209,0.076,0.284,0.145c0.225,0.209,0.128,0.544-0.189,0.654c-0.485,0.169-0.973,0.327-1.46,0.49
				c-2.634,0.878-5.268,1.755-7.901,2.638c-0.215,0.072-0.412,0.078-0.629,0.004c-1.588-0.535-3.178-1.062-4.768-1.592
				c-0.068-0.023-0.135-0.051-0.237-0.09c0.633-0.256,1.23-0.508,1.834-0.739c1.174-0.449,2.352-0.886,3.528-1.327
				c0.289-0.108,0.416-0.265,0.406-0.511c-0.009-0.206-0.137-0.399-0.335-0.43c-0.14-0.022-0.301-0.009-0.434,0.04
				c-1.151,0.426-2.301,0.855-3.445,1.3C8.177,8.587,7.519,8.884,6.85,9.157c-1.005,0.411-1.5,1.192-1.642,2.234
				c-0.01,0.074-0.019,0.148-0.035,0.22c-0.058,0.266-0.035,0.472,0.194,0.693c0.385,0.371,0.342,0.993-0.043,1.368
				c-0.103,0.101-0.117,0.187-0.1,0.319c0.114,0.873,0.227,1.748,0.106,2.628c-0.098,0.712-0.416,1.309-1.016,1.733
				c-0.259,0.183-0.536,0.259-0.837,0.103c-0.348-0.179-0.696-0.359-1.041-0.545C2.367,17.875,2.313,17.812,2.235,17.747z"/>
			<path d="M18.975,10.779c0.011,0.036,0.022,0.055,0.022,0.073c0,0.914,0.01,1.827-0.006,2.741
				c-0.01,0.583-0.399,0.943-0.838,1.245c-0.765,0.527-1.638,0.793-2.535,0.983c-1.685,0.356-3.385,0.388-5.086,0.159
				c-1.136-0.153-2.25-0.41-3.251-1.006c-0.252-0.15-0.475-0.349-0.675-0.498c0.138-0.319,0.308-0.578,0.36-0.859
				c0.114-0.621-0.067-1.167-0.579-1.568c-0.097-0.076-0.143-0.148-0.128-0.269c0.039-0.312,0.071-0.625,0.108-0.961
				c0.115,0.032,0.179,0.047,0.24,0.068c1.833,0.612,3.666,1.221,5.497,1.838c0.342,0.115,0.668,0.114,1.011-0.002
				c1.876-0.632,3.754-1.256,5.631-1.881C18.82,10.817,18.896,10.8,18.975,10.779z"/>
		</g>
	</g>
	<circle display="inline" cx="4.615" cy="12.958" r="1.031"/>
</g>
<g id="Layer_2" display="none">
	<g display="inline">
		<path d="M5.452,11.816c-0.042,0.113,0.02,0.198,0.121,0.289c0.463,0.419,0.482,1.06,0.047,1.514
			c-0.084,0.087-0.107,0.164-0.09,0.286c0.114,0.804,0.199,1.612,0.133,2.425c-0.066,0.805-0.38,1.488-1.058,1.971
			c-0.275,0.196-0.563,0.244-0.879,0.098c-0.351-0.161-0.697-0.331-1.024-0.538c-0.228-0.144-0.234-0.208-0.037-0.403
			c0.639-0.631,1.157-1.341,1.457-2.197c0.137-0.391,0.224-0.794,0.299-1.2c0.027-0.147-0.017-0.246-0.147-0.341
			c-0.56-0.408-0.584-1.218-0.04-1.643c0.16-0.125,0.213-0.26,0.23-0.44c0.035-0.378,0.102-0.75,0.204-1.116
			c0.115-0.415,0.28-0.807,0.538-1.152c0.097-0.13,0.087-0.18-0.073-0.231C4.528,8.944,3.926,8.739,3.323,8.536
			c-0.089-0.03-0.182-0.062-0.259-0.113C2.799,8.248,2.817,7.87,3.096,7.719c0.077-0.041,0.162-0.069,0.245-0.096
			c3.082-1.028,6.164-2.054,9.244-3.086c0.211-0.071,0.401-0.067,0.61,0.003c3.074,1.029,6.15,2.053,9.225,3.079
			c0.039,0.013,0.077,0.025,0.115,0.039c0.252,0.091,0.352,0.207,0.356,0.412c0.004,0.211-0.1,0.349-0.355,0.435
			c-0.91,0.308-1.822,0.611-2.734,0.915c-2.183,0.728-4.367,1.453-6.548,2.187c-0.25,0.084-0.476,0.089-0.728,0.004
			c-1.564-0.53-3.132-1.049-4.698-1.571c-0.026-0.009-0.053-0.014-0.077-0.025C7.698,9.99,7.608,9.993,7.601,9.929
			C7.593,9.844,7.692,9.843,7.749,9.821c1.689-0.678,3.363-1.397,5.094-1.966c0.083-0.027,0.167-0.058,0.242-0.102
			c0.208-0.121,0.286-0.348,0.199-0.558c-0.088-0.212-0.299-0.329-0.528-0.272c-0.408,0.102-0.798,0.257-1.192,0.402
			c-1.358,0.502-2.701,1.045-4.038,1.601C7.158,9.08,6.797,9.253,6.472,9.49c-0.485,0.354-0.736,0.855-0.874,1.422
			C5.528,11.202,5.479,11.495,5.452,11.816z"/>
		<path d="M19.312,12.182c0,0.359-0.014,0.718,0.003,1.076c0.028,0.58-0.22,1.017-0.656,1.369c-0.525,0.424-1.133,0.685-1.768,0.885
			c-1.032,0.326-2.092,0.479-3.171,0.539c-1.243,0.069-2.474-0.014-3.693-0.25c-0.799-0.154-1.577-0.385-2.3-0.772
			c-0.18-0.096-0.351-0.205-0.513-0.327c-0.124-0.094-0.272-0.181-0.335-0.319C6.8,14.211,6.997,14.118,7.066,13.99
			c0.352-0.654,0.189-1.52-0.401-1.982c-0.121-0.095-0.174-0.191-0.164-0.341c0.017-0.243,0.049-0.484,0.096-0.723
			c0.035-0.179,0.107-0.226,0.294-0.163c1.801,0.608,3.607,1.203,5.407,1.812c0.397,0.134,0.774,0.134,1.17,0.001
			c1.853-0.624,3.709-1.239,5.564-1.857c0.278-0.092,0.28-0.091,0.28,0.205C19.313,11.356,19.312,11.769,19.312,12.182z"/>
	</g>
</g>
<g id="Layer_3">
	<g>
		<path fill="#FFFFFF" d="M5.27,11.858c-0.042,0.113,0.02,0.198,0.121,0.289c0.463,0.419,0.482,1.06,0.047,1.514
			c-0.084,0.087-0.107,0.164-0.09,0.286c0.114,0.804,0.199,1.612,0.133,2.425c-0.066,0.805-0.38,1.488-1.058,1.971
			c-0.275,0.196-0.563,0.244-0.879,0.098c-0.351-0.161-0.697-0.331-1.024-0.538c-0.228-0.144-0.234-0.208-0.037-0.403
			c0.639-0.631,1.157-1.341,1.457-2.197c0.137-0.391,0.224-0.794,0.299-1.2c0.027-0.147-0.017-0.246-0.147-0.341
			c-0.56-0.408-0.584-1.218-0.04-1.643c0.16-0.125,0.213-0.26,0.23-0.44c0.035-0.378,0.102-0.75,0.204-1.116
			c0.115-0.415,0.28-0.807,0.538-1.152c0.097-0.13,0.087-0.18-0.073-0.231C4.346,8.986,3.744,8.781,3.141,8.577
			c-0.089-0.03-0.182-0.062-0.259-0.113C2.617,8.29,2.635,7.912,2.914,7.761C2.991,7.72,3.076,7.692,3.159,7.665
			c3.082-1.028,6.164-2.054,9.244-3.086c0.211-0.071,0.401-0.067,0.61,0.003c3.074,1.029,6.15,2.053,9.225,3.079
			c0.039,0.013,0.077,0.025,0.115,0.039c0.252,0.091,0.352,0.207,0.356,0.412c0.004,0.211-0.1,0.349-0.355,0.435
			c-0.91,0.308-1.822,0.611-2.734,0.915c-2.183,0.728-4.367,1.453-6.548,2.187c-0.25,0.084-0.476,0.089-0.728,0.004
			c-1.564-0.53-3.132-1.049-4.698-1.571c-0.026-0.009-0.053-0.014-0.077-0.025c-0.054-0.024-0.144-0.021-0.151-0.085
			C7.411,9.886,7.51,9.885,7.566,9.862c1.689-0.678,3.363-1.397,5.094-1.966c0.083-0.027,0.167-0.058,0.242-0.102
			c0.208-0.121,0.286-0.348,0.199-0.558c-0.088-0.212-0.299-0.329-0.528-0.272c-0.408,0.102-0.798,0.257-1.192,0.402
			C10.024,7.87,8.682,8.413,7.344,8.969C6.976,9.122,6.615,9.295,6.29,9.532c-0.485,0.354-0.736,0.855-0.874,1.422
			C5.346,11.244,5.296,11.537,5.27,11.858z"/>
		<path fill="#FFFFFF" d="M19.13,12.223c0,0.359-0.014,0.718,0.003,1.076c0.028,0.58-0.22,1.017-0.656,1.369
			c-0.525,0.424-1.133,0.685-1.768,0.885c-1.032,0.326-2.092,0.479-3.171,0.539c-1.243,0.069-2.474-0.014-3.693-0.25
			c-0.799-0.154-1.577-0.385-2.3-0.772c-0.18-0.096-0.351-0.205-0.513-0.327c-0.124-0.094-0.272-0.181-0.335-0.319
			c-0.079-0.172,0.119-0.265,0.187-0.393c0.352-0.654,0.189-1.52-0.401-1.982c-0.121-0.095-0.174-0.191-0.164-0.341
			c0.017-0.243,0.049-0.484,0.096-0.723c0.035-0.179,0.107-0.226,0.294-0.163c1.801,0.608,3.607,1.203,5.407,1.812
			c0.397,0.134,0.774,0.134,1.17,0.001c1.853-0.624,3.709-1.239,5.564-1.857c0.278-0.092,0.28-0.091,0.28,0.205
			C19.131,11.398,19.13,11.81,19.13,12.223z"/>
	</g>
</g>
</svg>
