<?xml version="1.0" encoding="utf-8"?>
<!-- Generator: Adobe Illustrator 17.0.0, SVG Export Plug-In . SVG Version: 6.00 Build 0)  -->
<!DOCTYPE svg PUBLIC "-//W3C//DTD SVG 1.1//EN" "http://www.w3.org/Graphics/SVG/1.1/DTD/svg11.dtd">
<svg version="1.1" xmlns="http://www.w3.org/2000/svg" xmlns:xlink="http://www.w3.org/1999/xlink" x="0px" y="0px" width="250px"
	 height="250px" viewBox="0 0 250 250" enable-background="new 0 0 250 250" xml:space="preserve">
<g id="Layer_2" display="none">
	<rect display="inline" fill="#F06529" width="250" height="250"/>
</g>
<g id="Layer_1">
	<path fill="#FFFFFF" d="M123.325,128.186v-19.776H97.156l-1.807-20.252h27.976V68.382h-0.068H73.736l0.472,5.305l4.861,54.499
		H123.325z M123.325,128.186"/>
	<path fill="#FFFFFF" d="M123.325,159.771l-0.087,0.023l-22.023-5.948l-1.408-15.772H89.104h-9.15l2.771,31.05l40.509,11.247
		l0.091-0.026V159.771z M123.325,159.771"/>
	<path fill="#FFFFFF" d="M169.226,108.411h-5.329h-40.641v19.776h24.352l-2.297,25.647l-22.055,5.954v20.573l40.541-11.237
		l0.298-3.34l4.648-52.064L169.226,108.411z M169.226,108.411"/>
	<path fill="#FFFFFF" d="M172.796,68.382h-49.54v12.282v7.447v0.047h47.705l0,0h0.064l0.395-4.444l0.902-10.026L172.796,68.382z
		 M172.796,68.382"/>
</g>
</svg>
