<?xml version="1.0" encoding="utf-8"?>
<!-- Generator: Adobe Illustrator 17.0.0, SVG Export Plug-In . SVG Version: 6.00 Build 0)  -->
<!DOCTYPE svg PUBLIC "-//W3C//DTD SVG 1.1//EN" "http://www.w3.org/Graphics/SVG/1.1/DTD/svg11.dtd">
<svg version="1.1" xmlns="http://www.w3.org/2000/svg" xmlns:xlink="http://www.w3.org/1999/xlink" x="0px" y="0px" width="250px"
	 height="250px" viewBox="0 0 250 250" enable-background="new 0 0 250 250" xml:space="preserve">
<g id="Layer_2" display="none">
	<rect display="inline" fill="#F0BF21" width="250" height="250"/>
</g>
<g id="Layer_1">
	<g>
		<path fill="#FFFFFF" d="M55.538,146.588l8.33-8.536c4.217,5.347,8.433,8.433,14.5,8.433c6.788,0,11.416-4.525,11.416-14.089
			V85.192h12.957v47.513c0,8.536-2.469,14.911-6.684,19.128c-4.217,4.217-10.285,6.376-17.483,6.376
			C67.468,158.209,60.269,153.067,55.538,146.588z"/>
		<path fill="#FFFFFF" d="M115.282,146.691l7.611-9.049c6.889,5.965,13.78,9.358,22.728,9.358c7.815,0,12.751-3.599,12.751-9.049
			v-0.206c0-5.142-2.879-7.919-16.248-11.003c-15.324-3.703-23.962-8.228-23.962-21.494v-0.205
			c0-12.341,10.284-20.877,24.579-20.877c10.49,0,18.82,3.188,26.121,9.05l-6.787,9.564c-6.479-4.834-12.959-7.405-19.54-7.405
			c-7.404,0-11.723,3.806-11.723,8.536v0.206c0,5.553,3.291,8.021,17.072,11.312c15.22,3.702,23.139,9.153,23.139,21.082v0.206
			c0,13.472-10.592,21.493-25.71,21.493C134.307,158.209,123.921,154.404,115.282,146.691z"/>
		<path fill="#FFFFFF" d="M187.568,165.836l-4.268-5.473c6.126-4.586,9.189-8.184,9.189-10.795c0-1.004-0.351-1.992-1.054-2.962
			c-3.18-1.54-4.77-3.699-4.77-6.477c0-2.008,0.837-3.674,2.511-4.996c1.674-1.322,3.749-1.983,6.226-1.983
			c2.31,0,4.326,0.879,6.05,2.636s2.586,3.791,2.586,6.101c0,4.251-0.996,8.126-2.988,11.624
			C199.058,157.007,194.564,161.116,187.568,165.836z M185.409,99.809c0-2.511,0.879-4.644,2.636-6.402s3.891-2.636,6.402-2.636
			s4.644,0.879,6.402,2.636s2.636,3.891,2.636,6.402s-0.879,4.653-2.636,6.427s-3.891,2.661-6.402,2.661s-4.644-0.887-6.402-2.661
			S185.409,102.32,185.409,99.809z"/>
	</g>
</g>
</svg>
