<?xml version="1.0" encoding="utf-8"?>
<!-- Generator: Adobe Illustrator 17.0.0, SVG Export Plug-In . SVG Version: 6.00 Build 0)  -->
<!DOCTYPE svg PUBLIC "-//W3C//DTD SVG 1.1//EN" "http://www.w3.org/Graphics/SVG/1.1/DTD/svg11.dtd">
<svg version="1.1" xmlns="http://www.w3.org/2000/svg" xmlns:xlink="http://www.w3.org/1999/xlink" x="0px" y="0px" width="250px"
	 height="250px" viewBox="0 0 250 250" enable-background="new 0 0 250 250" xml:space="preserve">
<g id="Layer_2" display="none">
	<rect display="inline" fill="#23A2C8" width="250" height="250"/>
</g>
<g id="Layer_1">
	<g>
		<path fill="#FFFFFF" d="M192.658,162.305c-11.234,19.865-27.216,32.27-50.3,33.888c-40.369,2.83-78.925-25.56-87.592-64.709
			c-3.75-16.939-1.275-32.904,9.445-47.091c2.708-3.584,5.295-7.26,8.531-10.546c-0.901,2.75-1.97,5.458-2.676,8.257
			c-5.015,19.858-0.822,38.264,10.505,54.715c18.672,27.118,44.478,41.039,77.92,38.858c11.45-0.747,21.796-4.958,30.999-11.882
			C190.332,163.16,190.977,162.058,192.658,162.305z"/>
		<path fill="#FFFFFF" d="M193.744,124.974c-5.847,10.746-13.689,19.033-26.054,22.412c-33.389,9.124-71.402-19.715-71.011-54.105
			c0.091-8.012,2.335-15.409,7.072-21.964c2.41-3.335,4.82-6.671,7.426-9.858c-7.11,22.841-0.264,41.716,17.192,56.47
			C148.172,134.665,170.13,138.624,193.744,124.974z"/>
		<path fill="#FFFFFF" d="M196.877,92.598c-6.966,13.115-18.121,18.403-32.364,15.767c-16.24-3.006-28.934-16.397-30.744-32.536
			c-0.988-8.811,2.954-15.687,8.949-22.216c-3.895,17.043,2.389,29.436,16.08,38.474
			C171.055,100.178,183.666,100.806,196.877,92.598z"/>
	</g>
</g>
</svg>
