<?xml version="1.0" encoding="utf-8"?>
<!-- Generator: Adobe Illustrator 17.0.0, SVG Export Plug-In . SVG Version: 6.00 Build 0)  -->
<!DOCTYPE svg PUBLIC "-//W3C//DTD SVG 1.1//EN" "http://www.w3.org/Graphics/SVG/1.1/DTD/svg11.dtd">
<svg version="1.1" xmlns="http://www.w3.org/2000/svg" xmlns:xlink="http://www.w3.org/1999/xlink" x="0px" y="0px" width="250px"
	 height="250px" viewBox="0 0 250 250" enable-background="new 0 0 250 250" xml:space="preserve">
<g id="Layer_2" display="none">
	<rect display="inline" fill="#B4D235" width="250" height="250"/>
</g>
<g id="Layer_1">
	<g>
		<path fill="#FFFFFF" d="M23.583,139.147c0-0.93,0.126-3.412,0.126-4.467c0-4.839-1.864-6.825-7.012-6.825h-1.615v-5.708h1.615
			c5.148,0,7.012-1.986,7.012-6.826c0-1.055-0.126-3.536-0.126-4.467c0-6.39,2.792-10.361,14.085-12.41l1.303,4.964
			c-7.446,2.048-8.438,3.971-8.438,8.501c0,1.24,0.126,3.288,0.126,4.591c0,4.84-2.358,7.198-6.455,8.5
			c4.157,1.366,6.455,3.661,6.455,8.5c0,1.304-0.126,3.351-0.126,4.592c0,4.529,0.993,6.453,8.438,8.5l-1.303,4.964
			C26.375,149.509,23.583,145.538,23.583,139.147z"/>
		<path fill="#FFFFFF" d="M42.755,136.417l5.027-5.149c2.545,3.225,5.087,5.087,8.748,5.087c4.095,0,6.886-2.73,6.886-8.5v-28.48
			h7.819v28.665c0,5.15-1.489,8.998-4.032,11.541c-2.545,2.544-6.206,3.846-10.55,3.846
			C49.954,143.428,45.61,140.326,42.755,136.417z"/>
		<path fill="#FFFFFF" d="M78.805,136.479l4.591-5.46c4.157,3.599,8.315,5.647,13.712,5.647c4.714,0,7.693-2.172,7.693-5.46v-0.124
			c0-3.103-1.736-4.777-9.804-6.639c-9.242-2.234-14.456-4.964-14.456-12.968v-0.125c0-7.446,6.206-12.596,14.829-12.596
			c6.329,0,11.354,1.924,15.761,5.46l-4.095,5.771c-3.91-2.917-7.819-4.467-11.79-4.467c-4.467,0-7.073,2.295-7.073,5.149v0.125
			c0,3.35,1.986,4.839,10.301,6.825c9.182,2.235,13.959,5.523,13.959,12.721v0.124c0,8.129-6.39,12.968-15.511,12.968
			C90.282,143.428,84.016,141.132,78.805,136.479z"/>
		<path fill="#FFFFFF" d="M119.504,121.215v-0.125c0-12.223,9.434-22.461,22.773-22.461s22.647,10.114,22.647,22.337v0.124
			c0,12.224-9.431,22.462-22.773,22.462C128.811,143.553,119.504,133.438,119.504,121.215z M156.919,121.215v-0.125
			c0-8.438-6.141-15.45-14.768-15.45c-8.623,0-14.642,6.888-14.642,15.326v0.124c0,8.438,6.143,15.451,14.768,15.451
			C150.899,136.541,156.919,129.654,156.919,121.215z"/>
		<path fill="#FFFFFF" d="M174.166,99.375h7.075l23.267,30.031V99.375h7.509v43.433h-6.392l-23.95-30.899v30.899h-7.509V99.375z"/>
		<path fill="#FFFFFF" d="M220.7,146.593c7.446-2.047,8.438-3.971,8.438-8.5c0-1.241-0.124-3.288-0.124-4.592
			c0-4.839,2.356-7.196,6.451-8.5c-4.157-1.364-6.451-3.66-6.451-8.5c0-1.303,0.124-3.351,0.124-4.591
			c0-4.53-0.993-6.453-8.438-8.501l1.303-4.964c11.291,2.048,14.085,6.02,14.085,12.41c0,0.931-0.124,3.413-0.124,4.467
			c0,4.84,1.86,6.826,7.01,6.826h1.613v5.708h-1.613c-5.15,0-7.01,1.986-7.01,6.825c0,1.056,0.124,3.538,0.124,4.467
			c0,6.391-2.794,10.362-14.085,12.41L220.7,146.593z"/>
	</g>
</g>
</svg>
