<?xml version="1.0" encoding="utf-8"?>
<!-- Generator: Adobe Illustrator 17.0.0, SVG Export Plug-In . SVG Version: 6.00 Build 0)  -->
<!DOCTYPE svg PUBLIC "-//W3C//DTD SVG 1.1//EN" "http://www.w3.org/Graphics/SVG/1.1/DTD/svg11.dtd">
<svg version="1.1" xmlns="http://www.w3.org/2000/svg" xmlns:xlink="http://www.w3.org/1999/xlink" x="0px" y="0px" width="250px"
	 height="250px" viewBox="0 0 250 250" enable-background="new 0 0 250 250" xml:space="preserve">
<g id="Layer_2" display="none">
	<rect x="-0.097" y="-0.097" display="inline" fill="#881D26" width="250.193" height="250.193"/>
</g>
<g id="Layer_1">
	<g>
		<path fill="#FFFFFF" d="M57.401,214.656c0,0,2.13-129.379,80.662-160.792c0,0,47.119-15.174,78,18.635l-2.396,5.324
			c0,0-50.314-35.406-78.532,33.809c0,0-17.57,43.659,8.785,103.024H57.401z"/>
		<polygon fill="#FFFFFF" points="40.097,170.731 35.572,186.703 52.343,188.567 56.336,173.925 		"/>
		<polygon fill="#FFFFFF" points="57.401,115.359 70.711,122.014 65.92,134.526 52.077,129.202 		"/>
		<polygon fill="#FFFFFF" points="85.353,71.168 96.002,79.953 89.346,90.335 76.568,82.082 		"/>
		<polygon fill="#FFFFFF" points="111.708,49.072 121.824,42.949 129.278,52.799 120.493,58.922 		"/>
		<polygon fill="#FFFFFF" points="150.841,38.158 163.353,38.158 165.216,45.878 154.302,45.878 		"/>
		<polygon fill="#FFFFFF" points="194.766,48.806 194.766,52.533 204.35,58.922 204.35,55.461 		"/>
		<polygon fill="#FFFFFF" points="138.063,186.171 142.322,197.884 156.698,198.949 153.503,189.632 		"/>
		<polygon fill="#FFFFFF" points="133.005,146.239 145.251,152.895 145.251,162.212 133.005,156.622 		"/>
		<polygon fill="#FFFFFF" points="138.063,115.359 147.38,124.942 145.251,132.562 136.732,124.942 		"/>
		<polygon fill="#FFFFFF" points="147.38,95.393 150.841,89.004 158.029,98.055 154.036,103.646 		"/>
		<polygon fill="#FFFFFF" points="166.548,77.291 174.268,74.362 175.599,82.349 169.476,86.076 		"/>
		<polygon fill="#FFFFFF" points="194.766,73.564 194.766,78.622 201.421,78.622 201.421,74.362 		"/>
	</g>
</g>
</svg>
