<?xml version="1.0" encoding="utf-8"?>
<!-- Generator: Adobe Illustrator 17.0.0, SVG Export Plug-In . SVG Version: 6.00 Build 0)  -->
<!DOCTYPE svg PUBLIC "-//W3C//DTD SVG 1.1//EN" "http://www.w3.org/Graphics/SVG/1.1/DTD/svg11.dtd">
<svg version="1.1" xmlns="http://www.w3.org/2000/svg" xmlns:xlink="http://www.w3.org/1999/xlink" x="0px" y="0px" width="250px"
	 height="250px" viewBox="0 0 250 250" enable-background="new 0 0 250 250" xml:space="preserve">
<g id="Layer_1" display="none">
	<rect display="inline" fill="#CC6698" width="250" height="250"/>
</g>
<g id="Layer_2">
	<path fill="#FFFFFF" d="M191.721,132.304c-6.715,0.036-12.53,1.647-17.406,4.05c-1.783-3.559-3.587-6.689-3.891-9.017
		c-0.354-2.717-0.764-4.339-0.337-7.576c0.427-3.237,2.3-7.822,2.273-8.165s-0.42-1.992-4.293-2.02
		c-3.873-0.028-7.186,0.745-7.576,1.768c-0.39,1.023-1.136,3.324-1.599,5.724c-0.679,3.512-7.732,16.036-11.738,22.589
		c-1.31-2.557-2.424-4.812-2.656-6.595c-0.354-2.717-0.764-4.339-0.337-7.576c0.427-3.237,2.3-7.822,2.273-8.165
		c-0.027-0.343-0.42-1.992-4.293-2.02c-3.873-0.028-7.186,0.745-7.576,1.768c-0.39,1.023-0.806,3.412-1.599,5.724
		c-0.794,2.312-10.17,23.204-12.626,28.62c-1.252,2.759-2.341,4.976-3.109,6.49c-0.002-0.004-0.005-0.009-0.005-0.009
		s-0.047,0.101-0.129,0.271c-0.658,1.288-1.05,2.002-1.05,2.002s0.004,0.01,0.012,0.027c-0.522,0.946-1.081,1.825-1.358,1.825
		c-0.194,0-0.581-2.519,0.084-5.976c1.395-7.247,4.747-18.55,4.714-18.939c-0.017-0.2,0.623-2.169-2.189-3.199
		c-2.733-1-3.707,0.668-3.956,0.673c-0.241,0.005-0.421,0.589-0.421,0.589s3.045-12.71-5.808-12.71
		c-5.535,0-13.204,6.055-16.982,11.543c-2.384,1.3-7.486,4.086-12.9,7.06c-2.079,1.142-4.201,2.31-6.212,3.418
		c-0.137-0.151-0.273-0.303-0.414-0.453c-10.735-11.453-30.579-19.554-29.737-34.951c0.306-5.598,2.252-20.337,38.131-38.215
		c29.391-14.646,52.92-10.616,56.986-1.684c5.809,12.761-12.575,36.478-43.098,39.899c-11.629,1.304-17.753-3.203-19.276-4.882
		c-1.603-1.767-1.842-1.847-2.441-1.515c-0.975,0.54-0.357,2.101,0,3.03c0.911,2.372,4.651,6.578,11.027,8.67
		c5.609,1.84,19.262,2.852,35.774-3.535c18.494-7.153,32.935-27.053,28.693-43.687c-4.314-16.917-32.364-22.479-58.912-13.047
		c-15.8,5.613-32.904,14.423-45.202,25.926c-14.622,13.677-16.954,25.581-15.993,30.555c3.414,17.674,27.774,29.183,37.528,37.712
		c-0.481,0.265-0.933,0.515-1.343,0.742c-4.891,2.419-23.459,12.137-28.104,22.404c-5.268,11.647,0.839,20.003,4.882,21.128
		c12.528,3.486,25.383-2.784,32.292-13.089c6.907-10.302,6.064-23.717,2.894-29.84c-0.039-0.076-0.083-0.15-0.123-0.226
		c1.263-0.747,2.551-1.507,3.827-2.257c2.489-1.461,4.932-2.825,7.053-3.979c-1.186,3.251-2.055,7.147-2.507,12.775
		c-0.531,6.611,2.178,15.157,5.724,18.519c1.561,1.48,3.439,1.515,4.63,1.515c4.126,0,6.008-3.432,8.081-7.492
		c2.542-4.979,4.798-10.774,4.798-10.774s-2.831,15.656,4.882,15.656c2.81,0,5.638-3.644,6.897-5.502
		c0.003,0.02,0.005,0.031,0.005,0.031s0.073-0.121,0.216-0.364c0.292-0.446,0.457-0.73,0.457-0.73s0.006-0.029,0.015-0.081
		c1.13-1.962,3.635-6.434,7.393-13.808c4.855-9.528,9.511-21.465,9.511-21.465s0.433,2.918,1.852,7.744
		c0.835,2.839,2.608,5.978,4.007,8.988c-1.126,1.563-1.818,2.46-1.818,2.46s0.007,0.016,0.019,0.047
		c-0.9,1.195-1.909,2.484-2.965,3.741c-3.832,4.564-8.396,9.775-9.007,11.279c-0.72,1.772-0.55,3.076,0.842,4.124
		c1.017,0.766,2.826,0.885,4.714,0.758c3.443-0.232,5.866-1.085,7.061-1.606c1.864-0.659,4.033-1.695,6.07-3.192
		c3.759-2.763,6.026-6.717,5.808-11.953c-0.121-2.886-1.041-5.746-2.205-8.446c0.341-0.49,0.683-0.985,1.026-1.486
		c5.926-8.663,10.522-18.182,10.522-18.182s0.433,2.918,1.852,7.744c0.718,2.443,2.134,5.107,3.408,7.721
		c-5.572,4.527-9.027,9.788-10.227,13.239c-2.218,6.382-0.481,9.274,2.778,9.933c1.476,0.298,3.561-0.378,5.129-1.042
		c1.952-0.647,4.296-1.725,6.487-3.335c3.759-2.763,7.373-6.633,7.155-11.869c-0.1-2.384-0.746-4.75-1.623-7.023
		c4.723-1.967,10.838-3.061,18.626-2.152c16.709,1.951,19.987,12.384,19.36,16.751c-0.627,4.367-4.131,6.767-5.303,7.492
		c-1.171,0.725-1.529,0.976-1.431,1.515c0.142,0.784,0.684,0.754,1.683,0.585c1.376-0.232,8.774-3.552,9.091-11.612
		C218.89,143.451,209.087,132.211,191.721,132.304z M62.93,175.724c-5.534,6.038-13.267,8.32-16.582,6.397
		c-3.58-2.076-2.162-10.965,4.63-17.372c4.14-3.905,9.484-7.501,13.029-9.716c0.807-0.486,1.992-1.198,3.433-2.062
		c0.239-0.136,0.374-0.212,0.374-0.212l-0.005-0.009c0.278-0.166,0.563-0.337,0.857-0.513
		C71.135,161.358,68.739,169.387,62.93,175.724z M103.25,148.313c-1.927,4.699-5.962,16.722-8.417,16.078
		c-2.108-0.553-3.392-9.692-0.421-18.687c1.495-4.527,4.689-9.938,6.566-12.037c3.021-3.379,6.347-4.484,7.155-3.114
		C109.162,132.298,104.458,145.367,103.25,148.313z M136.561,164.208c-0.817,0.427-1.567,0.696-1.915,0.489
		c-0.255-0.152,0.337-0.716,0.337-0.716s4.167-4.482,5.808-6.523c0.955-1.187,2.062-2.596,3.268-4.172
		c0.01,0.158,0.015,0.314,0.015,0.468C144.062,159.124,138.874,162.75,136.561,164.208z M162.223,158.358
		c-0.61-0.434-0.508-1.836,1.496-6.203c0.787-1.715,2.583-4.602,5.704-7.36c0.362,1.135,0.582,2.223,0.576,3.236
		C169.96,154.787,165.139,157.31,162.223,158.358z"/>
</g>
</svg>
